<svg xmlns="http://www.w3.org/2000/svg" viewBox="0 0 512 512">
  <rect width="512" height="512" fill="#050505" />
  <g transform="skewX(-10)">
    <path d="M92 88h184l-22 76h-88l-12 43h82l-21 72h-82l-14 49h96l-23 78H0z" fill="#fff" />
    <path d="M272 88h104c61 0 93 25 81 71-7 28-26 50-58 63 35 12 49 41 38 80-16 62-67 104-142 104H183z" fill="#ff4c00" />
    <path d="M318 158h34c24 0 36 9 31 28-5 20-22 31-45 31h-36zM288 275h43c27 0 40 11 34 34-6 22-26 35-54 35h-43z" fill="#050505" />
  </g>
  <g transform="translate(72 365)">
    <rect x="42" y="34" width="284" height="58" rx="29" fill="#fff" />
    <rect x="132" y="20" width="132" height="86" rx="43" fill="#ff4c00" />
    <circle cx="76" cy="63" r="21" fill="#050505" />
    <circle cx="154" cy="63" r="21" fill="#050505" />
    <circle cx="236" cy="63" r="21" fill="#050505" />
    <circle cx="312" cy="63" r="21" fill="#050505" />
  </g>
</svg>
